REM DIRINDEX 1\2,1\3,1\4,1\5
REM DIRNAME folder01,folder02,folder03,folder04,folder05
TITLE ""
FILE "Chapter_19.mp3" MP3
  TRACK 01 AUDIO
    TITLE "0:"
    INDEX 01 00:00:00
  TRACK 02 AUDIO
    TITLE "5:cjc087_5913"
    INDEX 01 00:00:09
  TRACK 03 AUDIO
    TITLE "0:"
    INDEX 01 00:01:73
  TRACK 04 AUDIO
    TITLE "5:cjc087_5914"
    INDEX 01 00:03:35
  TRACK 05 AUDIO
    TITLE "0:"
    INDEX 01 00:05:61
  TRACK 06 AUDIO
    TITLE "4:cjc087_5915"
    INDEX 01 00:06:59
  TRACK 07 AUDIO
    TITLE "3:cjc087_5916"
    INDEX 01 00:08:70
  TRACK 08 AUDIO
    TITLE "0:"
    INDEX 01 00:11:33
  TRACK 09 AUDIO
    TITLE "4:cjc087_5917"
    INDEX 01 00:12:40
  TRACK 10 AUDIO
    TITLE "3:cjc087_5918"
    INDEX 01 00:15:50
  TRACK 11 AUDIO
    TITLE "0:"
    INDEX 01 00:18:44
  TRACK 12 AUDIO
    TITLE "4:cjc087_5919"
    INDEX 01 00:19:42
  TRACK 13 AUDIO
    TITLE "3:cjc087_5920"
    INDEX 01 00:22:21
  TRACK 14 AUDIO
    TITLE "0:"
    INDEX 01 00:25:13
  TRACK 15 AUDIO
    TITLE "4:cjc087_5921"
    INDEX 01 00:26:07
  TRACK 16 AUDIO
    TITLE "3:cjc087_5922"
    INDEX 01 00:28:45
  TRACK 17 AUDIO
    TITLE "0:"
    INDEX 01 00:31:22
  TRACK 18 AUDIO
    TITLE "4:cjc087_5923"
    INDEX 01 00:32:19
  TRACK 19 AUDIO
    TITLE "3:cjc087_5924"
    INDEX 01 00:34:43
  TRACK 20 AUDIO
    TITLE "0:"
    INDEX 01 00:36:62
  TRACK 21 AUDIO
    TITLE "4:cjc087_5925"
    INDEX 01 00:37:59
  TRACK 22 AUDIO
    TITLE "3:cjc087_5926"
    INDEX 01 00:40:34
  TRACK 23 AUDIO
    TITLE "0:"
    INDEX 01 00:42:72
  TRACK 24 AUDIO
    TITLE "5:cjc087_5927"
    INDEX 01 00:44:34
  TRACK 25 AUDIO
    TITLE "0:"
    INDEX 01 00:46:62
  TRACK 26 AUDIO
    TITLE "4:cjc087_5928"
    INDEX 01 00:47:60
  TRACK 27 AUDIO
    TITLE "3:cjc087_5929"
    INDEX 01 00:50:21
  TRACK 28 AUDIO
    TITLE "0:"
    INDEX 01 00:52:67
  TRACK 29 AUDIO
    TITLE "4:cjc087_5930"
    INDEX 01 00:53:62
  TRACK 30 AUDIO
    TITLE "3:cjc087_5931"
    INDEX 01 00:55:53
  TRACK 31 AUDIO
    TITLE "0:"
    INDEX 01 00:57:68
  TRACK 32 AUDIO
    TITLE "4:cjc087_5932"
    INDEX 01 00:58:66
  TRACK 33 AUDIO
    TITLE "3:cjc087_5933"
    INDEX 01 01:01:38
  TRACK 34 AUDIO
    TITLE "0:"
    INDEX 01 01:03:59
  TRACK 35 AUDIO
    TITLE "4:cjc087_5934"
    INDEX 01 01:04:56
  TRACK 36 AUDIO
    TITLE "3:cjc087_5935"
    INDEX 01 01:07:53
  TRACK 37 AUDIO
    TITLE "0:"
    INDEX 01 01:10:28
  TRACK 38 AUDIO
    TITLE "4:cjc087_5936"
    INDEX 01 01:11:27
  TRACK 39 AUDIO
    TITLE "3:cjc087_5937"
    INDEX 01 01:13:20
  TRACK 40 AUDIO
    TITLE "0:"
    INDEX 01 01:15:17
  TRACK 41 AUDIO
    TITLE "4:cjc087_5938"
    INDEX 01 01:16:14
  TRACK 42 AUDIO
    TITLE "3:cjc087_5939"
    INDEX 01 01:17:57
  TRACK 43 AUDIO
    TITLE "0:"
    INDEX 01 01:19:74
  TRACK 44 AUDIO
    TITLE "4:cjc087_5940"
    INDEX 01 01:20:71
  TRACK 45 AUDIO
    TITLE "3:cjc087_5941"
    INDEX 01 01:23:40
  TRACK 46 AUDIO
    TITLE "0:"
    INDEX 01 01:26:42
  TRACK 47 AUDIO
    TITLE "2:cjc087_5942"
    INDEX 01 01:27:73
  TRACK 48 AUDIO
    TITLE "0:"
    INDEX 01 01:46:19
  TRACK 49 AUDIO
    TITLE "5:cjc087_5943"
    INDEX 01 01:47:64
  TRACK 50 AUDIO
    TITLE "0:"
    INDEX 01 01:50:17
  TRACK 51 AUDIO
    TITLE "4:cjc087_5944"
    INDEX 01 01:51:15
  TRACK 52 AUDIO
    TITLE "3:cjc087_5945"
    INDEX 01 01:53:49
  TRACK 53 AUDIO
    TITLE "0:"
    INDEX 01 01:59:20
  TRACK 54 AUDIO
    TITLE "4:cjc087_5946"
    INDEX 01 02:00:20
  TRACK 55 AUDIO
    TITLE "3:cjc087_5947"
    INDEX 01 02:02:17
  TRACK 56 AUDIO
    TITLE "0:"
    INDEX 01 02:04:19
  TRACK 57 AUDIO
    TITLE "4:cjc087_5948"
    INDEX 01 02:05:19
  TRACK 58 AUDIO
    TITLE "3:cjc087_5949"
    INDEX 01 02:07:33
  TRACK 59 AUDIO
    TITLE "0:"
    INDEX 01 02:10:14
  TRACK 60 AUDIO
    TITLE "4:cjc087_5950"
    INDEX 01 02:11:12
  TRACK 61 AUDIO
    TITLE "3:cjc087_5951"
    INDEX 01 02:13:24
  TRACK 62 AUDIO
    TITLE "0:"
    INDEX 01 02:15:39
  TRACK 63 AUDIO
    TITLE "4:cjc087_5952"
    INDEX 01 02:16:34
  TRACK 64 AUDIO
    TITLE "3:cjc087_5953"
    INDEX 01 02:18:55
  TRACK 65 AUDIO
    TITLE "0:"
    INDEX 01 02:20:56
  TRACK 66 AUDIO
    TITLE "4:cjc087_5954"
    INDEX 01 02:21:55
  TRACK 67 AUDIO
    TITLE "3:cjc087_5955"
    INDEX 01 02:23:66
  TRACK 68 AUDIO
    TITLE "0:"
    INDEX 01 02:26:03
  TRACK 69 AUDIO
    TITLE "4:cjc087_5956"
    INDEX 01 02:27:01
  TRACK 70 AUDIO
    TITLE "3:cjc087_5957"
    INDEX 01 02:28:32
  TRACK 71 AUDIO
    TITLE "0:"
    INDEX 01 02:30:15
  TRACK 72 AUDIO
    TITLE "5:cjc087_5958"
    INDEX 01 02:31:51
  TRACK 73 AUDIO
    TITLE "0:"
    INDEX 01 02:33:25
  TRACK 74 AUDIO
    TITLE "4:cjc087_5959"
    INDEX 01 02:34:20
  TRACK 75 AUDIO
    TITLE "3:cjc087_5960"
    INDEX 01 02:36:04
  TRACK 76 AUDIO
    TITLE "0:"
    INDEX 01 02:38:18
  TRACK 77 AUDIO
    TITLE "4:cjc087_5961"
    INDEX 01 02:39:16
  TRACK 78 AUDIO
    TITLE "3:cjc087_5962"
    INDEX 01 02:43:61
  TRACK 79 AUDIO
    TITLE "0:"
    INDEX 01 02:47:03
  TRACK 80 AUDIO
    TITLE "4:cjc087_5963"
    INDEX 01 02:48:01
  TRACK 81 AUDIO
    TITLE "3:cjc087_5964"
    INDEX 01 02:49:45
  TRACK 82 AUDIO
    TITLE "0:"
    INDEX 01 02:51:48
  TRACK 83 AUDIO
    TITLE "4:cjc087_5965"
    INDEX 01 02:52:46
  TRACK 84 AUDIO
    TITLE "3:cjc087_5966"
    INDEX 01 02:54:31
  TRACK 85 AUDIO
    TITLE "0:"
    INDEX 01 02:56:71
  TRACK 86 AUDIO
    TITLE "4:cjc087_5967"
    INDEX 01 02:57:69
  TRACK 87 AUDIO
    TITLE "3:cjc087_5968"
    INDEX 01 02:59:62
  TRACK 88 AUDIO
    TITLE "0:"
    INDEX 01 03:02:66
  TRACK 89 AUDIO
    TITLE "4:cjc087_5969"
    INDEX 01 03:03:63
  TRACK 90 AUDIO
    TITLE "3:cjc087_5970"
    INDEX 01 03:05:64
  TRACK 91 AUDIO
    TITLE "0:"
    INDEX 01 03:07:57
  TRACK 92 AUDIO
    TITLE "5:cjc087_5971"
    INDEX 01 03:09:17
  TRACK 93 AUDIO
    TITLE "0:"
    INDEX 01 03:11:10
  TRACK 94 AUDIO
    TITLE "4:cjc087_5972"
    INDEX 01 03:12:09
  TRACK 95 AUDIO
    TITLE "3:cjc087_5973"
    INDEX 01 03:14:16
  TRACK 96 AUDIO
    TITLE "0:"
    INDEX 01 03:16:42
  TRACK 97 AUDIO
    TITLE "4:cjc087_5974"
    INDEX 01 03:17:40
  TRACK 98 AUDIO
    TITLE "3:cjc087_5975"
    INDEX 01 03:20:07
  TRACK 99 AUDIO
    TITLE "0:"
    INDEX 01 03:22:66
  TRACK 100 AUDIO
    TITLE "4:cjc087_5976"
    INDEX 01 03:23:64
  TRACK 101 AUDIO
    TITLE "3:cjc087_5977"
    INDEX 01 03:26:41
  TRACK 102 AUDIO
    TITLE "0:"
    INDEX 01 03:29:18
  TRACK 103 AUDIO
    TITLE "4:cjc087_5978"
    INDEX 01 03:30:15
  TRACK 104 AUDIO
    TITLE "3:cjc087_5979"
    INDEX 01 03:32:49
  TRACK 105 AUDIO
    TITLE "0:"
    INDEX 01 03:36:02
  TRACK 106 AUDIO
    TITLE "4:cjc087_5980"
    INDEX 01 03:36:72
  TRACK 107 AUDIO
    TITLE "3:cjc087_5981"
    INDEX 01 03:39:30
  TRACK 108 AUDIO
    TITLE "0:"
    INDEX 01 03:42:46
  TRACK 109 AUDIO
    TITLE "4:cjc087_5982"
    INDEX 01 03:43:45
  TRACK 110 AUDIO
    TITLE "3:cjc087_5983"
    INDEX 01 03:46:20
  TRACK 111 AUDIO
    TITLE "0:"
    INDEX 01 03:49:12
  TRACK 112 AUDIO
    TITLE "5:cjc087_5984"
    INDEX 01 03:50:49
  TRACK 113 AUDIO
    TITLE "0:"
    INDEX 01 03:52:38
  TRACK 114 AUDIO
    TITLE "4:cjc087_5985"
    INDEX 01 03:53:34
  TRACK 115 AUDIO
    TITLE "3:cjc087_5986"
    INDEX 01 03:55:33
  TRACK 116 AUDIO
    TITLE "0:"
    INDEX 01 03:57:63
  TRACK 117 AUDIO
    TITLE "4:cjc087_5987"
    INDEX 01 03:58:62
  TRACK 118 AUDIO
    TITLE "3:cjc087_5988"
    INDEX 01 04:00:69
  TRACK 119 AUDIO
    TITLE "0:"
    INDEX 01 04:03:52
  TRACK 120 AUDIO
    TITLE "4:cjc087_5989"
    INDEX 01 04:04:49
  TRACK 121 AUDIO
    TITLE "3:cjc087_5990"
    INDEX 01 04:06:70
  TRACK 122 AUDIO
    TITLE "0:"
    INDEX 01 04:09:13
  TRACK 123 AUDIO
    TITLE "4:cjc087_5991"
    INDEX 01 04:10:11
  TRACK 124 AUDIO
    TITLE "3:cjc087_5992"
    INDEX 01 04:12:35
  TRACK 125 AUDIO
    TITLE "0:"
    INDEX 01 04:14:73
  TRACK 126 AUDIO
    TITLE "4:cjc087_5993"
    INDEX 01 04:15:71
  TRACK 127 AUDIO
    TITLE "3:cjc087_5994"
    INDEX 01 04:18:59
  TRACK 128 AUDIO
    TITLE "0:"
    INDEX 01 04:21:48
  TRACK 129 AUDIO
    TITLE "4:cjc087_5995"
    INDEX 01 04:22:45
  TRACK 130 AUDIO
    TITLE "3:cjc087_5996"
    INDEX 01 04:24:01
  TRACK 131 AUDIO
    TITLE "0:"
    INDEX 01 04:25:69
  TRACK 132 AUDIO
    TITLE "4:cjc087_5997"
    INDEX 01 04:26:66
  TRACK 133 AUDIO
    TITLE "3:cjc087_5998"
    INDEX 01 04:28:44
  TRACK 134 AUDIO
    TITLE "0:"
    INDEX 01 04:30:60
  TRACK 135 AUDIO
    TITLE "5:cjc087_5999"
    INDEX 01 04:32:22
  TRACK 136 AUDIO
    TITLE "0:"
    INDEX 01 04:34:19
  TRACK 137 AUDIO
    TITLE "4:cjc087_6000"
    INDEX 01 04:35:15
  TRACK 138 AUDIO
    TITLE "3:cjc087_6001"
    INDEX 01 04:36:73
  TRACK 139 AUDIO
    TITLE "0:"
    INDEX 01 04:39:14
  TRACK 140 AUDIO
    TITLE "4:cjc087_6002"
    INDEX 01 04:40:10
  TRACK 141 AUDIO
    TITLE "3:cjc087_6003"
    INDEX 01 04:42:52
  TRACK 142 AUDIO
    TITLE "0:"
    INDEX 01 04:46:05
  TRACK 143 AUDIO
    TITLE "4:cjc087_6004"
    INDEX 01 04:47:00
  TRACK 144 AUDIO
    TITLE "3:cjc087_6005"
    INDEX 01 04:48:62
  TRACK 145 AUDIO
    TITLE "0:"
    INDEX 01 04:51:06
  TRACK 146 AUDIO
    TITLE "4:cjc087_6006"
    INDEX 01 04:52:05
  TRACK 147 AUDIO
    TITLE "3:cjc087_6007"
    INDEX 01 04:53:61
  TRACK 148 AUDIO
    TITLE "0:"
    INDEX 01 04:55:60
  TRACK 149 AUDIO
    TITLE "4:cjc087_6008"
    INDEX 01 04:56:56
  TRACK 150 AUDIO
    TITLE "3:cjc087_6009"
    INDEX 01 04:58:70
  TRACK 151 AUDIO
    TITLE "0:"
    INDEX 01 05:01:37
  TRACK 152 AUDIO
    TITLE "4:cjc087_6010"
    INDEX 01 05:02:37
  TRACK 153 AUDIO
    TITLE "3:cjc087_6011"
    INDEX 01 05:04:61
  TRACK 154 AUDIO
    TITLE "0:"
    INDEX 01 05:06:56
  TRACK 155 AUDIO
    TITLE "4:cjc087_6012"
    INDEX 01 05:07:54
  TRACK 156 AUDIO
    TITLE "3:cjc087_6013"
    INDEX 01 05:09:47
  TRACK 157 AUDIO
    TITLE "0:"
    INDEX 01 05:11:26
  TRACK 158 AUDIO
    TITLE "4:cjc087_6014"
    INDEX 01 05:12:22
  TRACK 159 AUDIO
    TITLE "3:cjc087_6015"
    INDEX 01 05:14:60
  TRACK 160 AUDIO
    TITLE "0:"
    INDEX 01 05:16:49
  TRACK 161 AUDIO
    TITLE "5:cjc087_6016"
    INDEX 01 05:18:08
  TRACK 162 AUDIO
    TITLE "0:"
    INDEX 01 05:20:00
  TRACK 163 AUDIO
    TITLE "4:cjc087_6017"
    INDEX 01 05:20:72
  TRACK 164 AUDIO
    TITLE "3:cjc087_6018"
    INDEX 01 05:22:55
  TRACK 165 AUDIO
    TITLE "0:"
    INDEX 01 05:25:14
  TRACK 166 AUDIO
    TITLE "4:cjc087_6019"
    INDEX 01 05:26:14
  TRACK 167 AUDIO
    TITLE "3:cjc087_6020"
    INDEX 01 05:27:49
  TRACK 168 AUDIO
    TITLE "0:"
    INDEX 01 05:29:32
  TRACK 169 AUDIO
    TITLE "4:cjc087_6021"
    INDEX 01 05:30:29
  TRACK 170 AUDIO
    TITLE "3:cjc087_6022"
    INDEX 01 05:32:14
  TRACK 171 AUDIO
    TITLE "0:"
    INDEX 01 05:34:45
  TRACK 172 AUDIO
    TITLE "4:cjc087_6023"
    INDEX 01 05:35:42
  TRACK 173 AUDIO
    TITLE "3:cjc087_6024"
    INDEX 01 05:37:37
  TRACK 174 AUDIO
    TITLE "0:"
    INDEX 01 05:40:00
  TRACK 175 AUDIO
    TITLE "4:cjc087_6025"
    INDEX 01 05:41:00
  TRACK 176 AUDIO
    TITLE "3:cjc087_6026"
    INDEX 01 05:42:62
  TRACK 177 AUDIO
    TITLE "0:"
    INDEX 01 05:45:54
  TRACK 178 AUDIO
    TITLE "4:cjc087_6027"
    INDEX 01 05:46:52
  TRACK 179 AUDIO
    TITLE "3:cjc087_6028"
    INDEX 01 05:48:43
  TRACK 180 AUDIO
    TITLE "0:"
    INDEX 01 05:51:27
  TRACK 181 AUDIO
    TITLE "4:cjc087_6029"
    INDEX 01 05:52:21
  TRACK 182 AUDIO
    TITLE "3:cjc087_6030"
    INDEX 01 05:54:49
  TRACK 183 AUDIO
    TITLE "0:"
    INDEX 01 05:57:63
  TRACK 184 AUDIO
    TITLE "2:cjc087_6031"
    INDEX 01 05:59:23
  TRACK 185 AUDIO
    TITLE "0:"
    INDEX 01 06:14:38
  TRACK 186 AUDIO
    TITLE "5:cjc087_6032"
    INDEX 01 06:16:00
  TRACK 187 AUDIO
    TITLE "0:"
    INDEX 01 06:17:62
  TRACK 188 AUDIO
    TITLE "4:cjc087_6033"
    INDEX 01 06:18:56
  TRACK 189 AUDIO
    TITLE "3:cjc087_6034"
    INDEX 01 06:20:25
  TRACK 190 AUDIO
    TITLE "0:"
    INDEX 01 06:22:14
  TRACK 191 AUDIO
    TITLE "4:cjc087_6035"
    INDEX 01 06:23:14
  TRACK 192 AUDIO
    TITLE "3:cjc087_6036"
    INDEX 01 06:25:07
  TRACK 193 AUDIO
    TITLE "0:"
    INDEX 01 06:27:02
  TRACK 194 AUDIO
    TITLE "4:cjc087_6037"
    INDEX 01 06:27:72
  TRACK 195 AUDIO
    TITLE "3:cjc087_6038"
    INDEX 01 06:29:59
  TRACK 196 AUDIO
    TITLE "0:"
    INDEX 01 06:31:66
  TRACK 197 AUDIO
    TITLE "4:cjc087_6039"
    INDEX 01 06:32:66
  TRACK 198 AUDIO
    TITLE "3:cjc087_6040"
    INDEX 01 06:34:61
  TRACK 199 AUDIO
    TITLE "0:"
    INDEX 01 06:37:06
  TRACK 200 AUDIO
    TITLE "4:cjc087_6041"
    INDEX 01 06:38:04
  TRACK 201 AUDIO
    TITLE "3:cjc087_6042"
    INDEX 01 06:40:08
  TRACK 202 AUDIO
    TITLE "0:"
    INDEX 01 06:41:63
  TRACK 203 AUDIO
    TITLE "4:cjc087_6043"
    INDEX 01 06:42:60
  TRACK 204 AUDIO
    TITLE "3:cjc087_6044"
    INDEX 01 06:44:12
  TRACK 205 AUDIO
    TITLE "0:"
    INDEX 01 06:46:27
  TRACK 206 AUDIO
    TITLE "4:cjc087_6045"
    INDEX 01 06:47:24
  TRACK 207 AUDIO
    TITLE "3:cjc087_6046"
    INDEX 01 06:49:74
  TRACK 208 AUDIO
    TITLE "0:"
    INDEX 01 06:52:66
  TRACK 209 AUDIO
    TITLE "5:cjc087_6047"
    INDEX 01 06:54:28
  TRACK 210 AUDIO
    TITLE "0:"
    INDEX 01 06:56:23
  TRACK 211 AUDIO
    TITLE "3:cjc087_6048"
    INDEX 01 06:57:21
  TRACK 212 AUDIO
    TITLE "4:cjc087_6049"
    INDEX 01 06:58:59
  TRACK 213 AUDIO
    TITLE "0:"
    INDEX 01 07:00:23
  TRACK 214 AUDIO
    TITLE "3:cjc087_6050"
    INDEX 01 07:01:20
  TRACK 215 AUDIO
    TITLE "4:cjc087_6051"
    INDEX 01 07:04:01
  TRACK 216 AUDIO
    TITLE "0:"
    INDEX 01 07:05:44
  TRACK 217 AUDIO
    TITLE "3:cjc087_6052"
    INDEX 01 07:06:41
  TRACK 218 AUDIO
    TITLE "4:cjc087_6053"
    INDEX 01 07:09:45
  TRACK 219 AUDIO
    TITLE "0:"
    INDEX 01 07:12:18
  TRACK 220 AUDIO
    TITLE "3:cjc087_6054"
    INDEX 01 07:13:16
  TRACK 221 AUDIO
    TITLE "4:cjc087_6055"
    INDEX 01 07:14:48
  TRACK 222 AUDIO
    TITLE "0:"
    INDEX 01 07:16:16
  TRACK 223 AUDIO
    TITLE "3:cjc087_6056"
    INDEX 01 07:17:13
  TRACK 224 AUDIO
    TITLE "4:cjc087_6057"
    INDEX 01 07:19:32
  TRACK 225 AUDIO
    TITLE "0:"
    INDEX 01 07:21:68
  TRACK 226 AUDIO
    TITLE "3:cjc087_6058"
    INDEX 01 07:22:66
  TRACK 227 AUDIO
    TITLE "4:cjc087_6059"
    INDEX 01 07:24:72
  TRACK 228 AUDIO
    TITLE "0:"
    INDEX 01 07:27:43
  TRACK 229 AUDIO
    TITLE "3:cjc087_6060"
    INDEX 01 07:28:41
  TRACK 230 AUDIO
    TITLE "4:cjc087_6061"
    INDEX 01 07:30:40
  TRACK 231 AUDIO
    TITLE "0:"
    INDEX 01 07:32:01
  TRACK 232 AUDIO
    TITLE "5:cjc087_6062"
    INDEX 01 07:33:36
  TRACK 233 AUDIO
    TITLE "0:"
    INDEX 01 07:35:25
  TRACK 234 AUDIO
    TITLE "4:cjc087_6063"
    INDEX 01 07:36:21
  TRACK 235 AUDIO
    TITLE "3:cjc087_6064"
    INDEX 01 07:37:69
  TRACK 236 AUDIO
    TITLE "0:"
    INDEX 01 07:39:48
  TRACK 237 AUDIO
    TITLE "4:cjc087_6065"
    INDEX 01 07:40:44
  TRACK 238 AUDIO
    TITLE "3:cjc087_6066"
    INDEX 01 07:42:00
  TRACK 239 AUDIO
    TITLE "0:"
    INDEX 01 07:43:44
  TRACK 240 AUDIO
    TITLE "4:cjc087_6067"
    INDEX 01 07:44:42
  TRACK 241 AUDIO
    TITLE "3:cjc087_6068"
    INDEX 01 07:46:54
  TRACK 242 AUDIO
    TITLE "0:"
    INDEX 01 07:48:49
  TRACK 243 AUDIO
    TITLE "4:cjc087_6069"
    INDEX 01 07:49:47
  TRACK 244 AUDIO
    TITLE "3:cjc087_6070"
    INDEX 01 07:51:48
  TRACK 245 AUDIO
    TITLE "0:"
    INDEX 01 07:53:52
  TRACK 246 AUDIO
    TITLE "4:cjc087_6071"
    INDEX 01 07:54:52
  TRACK 247 AUDIO
    TITLE "3:cjc087_6072"
    INDEX 01 07:56:27
  TRACK 248 AUDIO
    TITLE "0:"
    INDEX 01 07:58:32
  TRACK 249 AUDIO
    TITLE "4:cjc087_6073"
    INDEX 01 07:59:31
  TRACK 250 AUDIO
    TITLE "3:cjc087_6074"
    INDEX 01 08:01:73
  TRACK 251 AUDIO
    TITLE "0:"
    INDEX 01 08:04:33
  TRACK 252 AUDIO
    TITLE "4:cjc087_6075"
    INDEX 01 08:05:32
  TRACK 253 AUDIO
    TITLE "3:cjc087_6076"
    INDEX 01 08:06:51
  TRACK 254 AUDIO
    TITLE "0:"
    INDEX 01 08:08:44
  TRACK 255 AUDIO
    TITLE "4:cjc087_6077"
    INDEX 01 08:09:42
  TRACK 256 AUDIO
    TITLE "3:cjc087_6078"
    INDEX 01 08:11:46
  TRACK 257 AUDIO
    TITLE "0:"
    INDEX 01 08:13:55
  TRACK 258 AUDIO
    TITLE "5:cjc087_6079"
    INDEX 01 08:15:15
  TRACK 259 AUDIO
    TITLE "0:"
    INDEX 01 08:17:12
  TRACK 260 AUDIO
    TITLE "4:cjc087_6080"
    INDEX 01 08:18:07
  TRACK 261 AUDIO
    TITLE "3:cjc087_6081"
    INDEX 01 08:20:02
  TRACK 262 AUDIO
    TITLE "0:"
    INDEX 01 08:22:27
  TRACK 263 AUDIO
    TITLE "4:cjc087_6082"
    INDEX 01 08:23:24
  TRACK 264 AUDIO
    TITLE "3:cjc087_6083"
    INDEX 01 08:25:72
  TRACK 265 AUDIO
    TITLE "0:"
    INDEX 01 08:28:60
  TRACK 266 AUDIO
    TITLE "4:cjc087_6084"
    INDEX 01 08:29:68
  TRACK 267 AUDIO
    TITLE "3:cjc087_6085"
    INDEX 01 08:31:69
  TRACK 268 AUDIO
    TITLE "0:"
    INDEX 01 08:34:36
  TRACK 269 AUDIO
    TITLE "4:cjc087_6086"
    INDEX 01 08:35:33
  TRACK 270 AUDIO
    TITLE "3:cjc087_6087"
    INDEX 01 08:37:26
  TRACK 271 AUDIO
    TITLE "0:"
    INDEX 01 08:39:47
  TRACK 272 AUDIO
    TITLE "4:cjc087_6088"
    INDEX 01 08:40:44
  TRACK 273 AUDIO
    TITLE "3:cjc087_6089"
    INDEX 01 08:42:21
  TRACK 274 AUDIO
    TITLE "0:"
    INDEX 01 08:44:59
  TRACK 275 AUDIO
    TITLE "4:cjc087_6090"
    INDEX 01 08:45:57
  TRACK 276 AUDIO
    TITLE "3:cjc087_6091"
    INDEX 01 08:47:62
  TRACK 277 AUDIO
    TITLE "0:"
    INDEX 01 08:50:19
  TRACK 278 AUDIO
    TITLE "4:cjc087_6092"
    INDEX 01 08:51:18
  TRACK 279 AUDIO
    TITLE "3:cjc087_6093"
    INDEX 01 08:52:53
  TRACK 280 AUDIO
    TITLE "0:"
    INDEX 01 08:54:66
  TRACK 281 AUDIO
    TITLE "5:cjc087_6094"
    INDEX 01 08:56:25
  TRACK 282 AUDIO
    TITLE "0:"
    INDEX 01 08:58:17
  TRACK 283 AUDIO
    TITLE "4:cjc087_6095"
    INDEX 01 08:59:16
  TRACK 284 AUDIO
    TITLE "3:cjc087_6096"
    INDEX 01 09:00:72
  TRACK 285 AUDIO
    TITLE "0:"
    INDEX 01 09:03:18
  TRACK 286 AUDIO
    TITLE "4:cjc087_6097"
    INDEX 01 09:04:17
  TRACK 287 AUDIO
    TITLE "3:cjc087_6098"
    INDEX 01 09:05:69
  TRACK 288 AUDIO
    TITLE "0:"
    INDEX 01 09:09:20
  TRACK 289 AUDIO
    TITLE "4:cjc087_6099"
    INDEX 01 09:10:18
  TRACK 290 AUDIO
    TITLE "3:cjc087_6100"
    INDEX 01 09:12:72
  TRACK 291 AUDIO
    TITLE "0:"
    INDEX 01 09:15:56
  TRACK 292 AUDIO
    TITLE "4:cjc087_6101"
    INDEX 01 09:16:54
  TRACK 293 AUDIO
    TITLE "3:cjc087_6102"
    INDEX 01 09:19:28
  TRACK 294 AUDIO
    TITLE "0:"
    INDEX 01 09:22:19
  TRACK 295 AUDIO
    TITLE "4:cjc087_6103"
    INDEX 01 09:23:15
  TRACK 296 AUDIO
    TITLE "3:cjc087_6104"
    INDEX 01 09:26:34
  TRACK 297 AUDIO
    TITLE "0:"
    INDEX 01 09:29:19
  TRACK 298 AUDIO
    TITLE "4:cjc087_6105"
    INDEX 01 09:30:18
  TRACK 299 AUDIO
    TITLE "3:cjc087_6106"
    INDEX 01 09:31:67
  TRACK 300 AUDIO
    TITLE "0:"
    INDEX 01 09:33:46
  TRACK 301 AUDIO
    TITLE "4:cjc087_6107"
    INDEX 01 09:34:44
  TRACK 302 AUDIO
    TITLE "3:cjc087_6108"
    INDEX 01 09:37:21
  TRACK 303 AUDIO
    TITLE "0:"
    INDEX 01 09:40:07
  TRACK 304 AUDIO
    TITLE "5:cjc087_6109"
    INDEX 01 09:41:44
  TRACK 305 AUDIO
    TITLE "0:"
    INDEX 01 09:43:33
  TRACK 306 AUDIO
    TITLE "4:cjc087_6110"
    INDEX 01 09:44:30
  TRACK 307 AUDIO
    TITLE "3:cjc087_6111"
    INDEX 01 09:46:25
  TRACK 308 AUDIO
    TITLE "0:"
    INDEX 01 09:48:44
  TRACK 309 AUDIO
    TITLE "4:cjc087_6112"
    INDEX 01 09:49:39
  TRACK 310 AUDIO
    TITLE "3:cjc087_6113"
    INDEX 01 09:51:13
  TRACK 311 AUDIO
    TITLE "0:"
    INDEX 01 09:53:31
  TRACK 312 AUDIO
    TITLE "4:cjc087_6114"
    INDEX 01 09:54:33
  TRACK 313 AUDIO
    TITLE "3:cjc087_6115"
    INDEX 01 09:56:41
  TRACK 314 AUDIO
    TITLE "0:"
    INDEX 01 09:59:04
  TRACK 315 AUDIO
    TITLE "4:cjc087_6116"
    INDEX 01 10:00:08
  TRACK 316 AUDIO
    TITLE "3:cjc087_6117"
    INDEX 01 10:02:34
  TRACK 317 AUDIO
    TITLE "0:"
    INDEX 01 10:05:15
  TRACK 318 AUDIO
    TITLE "4:cjc087_6118"
    INDEX 01 10:06:14
  TRACK 319 AUDIO
    TITLE "3:cjc087_6119"
    INDEX 01 10:08:39
  TRACK 320 AUDIO
    TITLE "0:"
    INDEX 01 10:11:12
  TRACK 321 AUDIO
    TITLE "4:cjc087_6120"
    INDEX 01 10:12:11
  TRACK 322 AUDIO
    TITLE "3:cjc087_6121"
    INDEX 01 10:13:50
  TRACK 323 AUDIO
    TITLE "0:"
    INDEX 01 10:15:45
  TRACK 324 AUDIO
    TITLE "4:cjc087_6122"
    INDEX 01 10:16:40
  TRACK 325 AUDIO
    TITLE "3:cjc087_6123"
    INDEX 01 10:18:25
  TRACK 326 AUDIO
    TITLE "0:"
    INDEX 01 10:20:34
  TRACK 327 AUDIO
    TITLE "2:cjc087_6124"
    INDEX 01 10:22:00
  TRACK 328 AUDIO
    TITLE "0:"
    INDEX 01 10:45:12
  TRACK 329 AUDIO
    TITLE "5:cjc087_6125"
    INDEX 01 10:46:55
  TRACK 330 AUDIO
    TITLE "0:"
    INDEX 01 10:48:64
  TRACK 331 AUDIO
    TITLE "4:cjc087_6126"
    INDEX 01 10:49:57
  TRACK 332 AUDIO
    TITLE "3:cjc087_6127"
    INDEX 01 10:51:74
  TRACK 333 AUDIO
    TITLE "0:"
    INDEX 01 10:54:31
  TRACK 334 AUDIO
    TITLE "4:cjc087_6128"
    INDEX 01 10:55:28
  TRACK 335 AUDIO
    TITLE "3:cjc087_6129"
    INDEX 01 10:57:49
  TRACK 336 AUDIO
    TITLE "0:"
    INDEX 01 10:59:65
  TRACK 337 AUDIO
    TITLE "4:cjc087_6130"
    INDEX 01 11:00:63
  TRACK 338 AUDIO
    TITLE "3:cjc087_6131"
    INDEX 01 11:02:25
  TRACK 339 AUDIO
    TITLE "0:"
    INDEX 01 11:04:18
  TRACK 340 AUDIO
    TITLE "4:cjc087_6132"
    INDEX 01 11:05:31
  TRACK 341 AUDIO
    TITLE "3:cjc087_6133"
    INDEX 01 11:07:41
  TRACK 342 AUDIO
    TITLE "0:"
    INDEX 01 11:09:56
  TRACK 343 AUDIO
    TITLE "4:cjc087_6134"
    INDEX 01 11:10:55
  TRACK 344 AUDIO
    TITLE "3:cjc087_6135"
    INDEX 01 11:12:47
  TRACK 345 AUDIO
    TITLE "0:"
    INDEX 01 11:15:63
  TRACK 346 AUDIO
    TITLE "4:cjc087_6136"
    INDEX 01 11:16:58
  TRACK 347 AUDIO
    TITLE "3:cjc087_6137"
    INDEX 01 11:18:59
  TRACK 348 AUDIO
    TITLE "0:"
    INDEX 01 11:21:14
  TRACK 349 AUDIO
    TITLE "4:cjc087_6138"
    INDEX 01 11:22:10
  TRACK 350 AUDIO
    TITLE "3:cjc087_6139"
    INDEX 01 11:24:07
  TRACK 351 AUDIO
    TITLE "0:"
    INDEX 01 11:26:27
  TRACK 352 AUDIO
    TITLE "5:cjc087_6140"
    INDEX 01 11:27:64
  TRACK 353 AUDIO
    TITLE "0:"
    INDEX 01 11:29:69
  TRACK 354 AUDIO
    TITLE "4:cjc087_6141"
    INDEX 01 11:30:64
  TRACK 355 AUDIO
    TITLE "3:cjc087_6142"
    INDEX 01 11:32:51
  TRACK 356 AUDIO
    TITLE "0:"
    INDEX 01 11:35:18
  TRACK 357 AUDIO
    TITLE "4:cjc087_6143"
    INDEX 01 11:36:18
  TRACK 358 AUDIO
    TITLE "3:cjc087_6144"
    INDEX 01 11:38:38
  TRACK 359 AUDIO
    TITLE "0:"
    INDEX 01 11:40:68
  TRACK 360 AUDIO
    TITLE "4:cjc087_6145"
    INDEX 01 11:41:68
  TRACK 361 AUDIO
    TITLE "3:cjc087_6146"
    INDEX 01 11:44:33
  TRACK 362 AUDIO
    TITLE "0:"
    INDEX 01 11:46:69
  TRACK 363 AUDIO
    TITLE "4:cjc087_6147"
    INDEX 01 11:47:66
  TRACK 364 AUDIO
    TITLE "3:cjc087_6148"
    INDEX 01 11:50:04
  TRACK 365 AUDIO
    TITLE "0:"
    INDEX 01 11:52:17
  TRACK 366 AUDIO
    TITLE "4:cjc087_6149"
    INDEX 01 11:53:14
  TRACK 367 AUDIO
    TITLE "3:cjc087_6150"
    INDEX 01 11:55:42
  TRACK 368 AUDIO
    TITLE "0:"
    INDEX 01 11:59:27
  TRACK 369 AUDIO
    TITLE "4:cjc087_6151"
    INDEX 01 12:00:22
  TRACK 370 AUDIO
    TITLE "3:cjc087_6152"
    INDEX 01 12:02:68
  TRACK 371 AUDIO
    TITLE "0:"
    INDEX 01 12:05:37
  TRACK 372 AUDIO
    TITLE "4:cjc087_6153"
    INDEX 01 12:06:32
  TRACK 373 AUDIO
    TITLE "3:cjc087_6154"
    INDEX 01 12:08:47
  TRACK 374 AUDIO
    TITLE "0:"
    INDEX 01 12:11:04
  TRACK 375 AUDIO
    TITLE "5:cjc087_6155"
    INDEX 01 12:12:41
  TRACK 376 AUDIO
    TITLE "0:"
    INDEX 01 12:14:50
  TRACK 377 AUDIO
    TITLE "4:cjc087_6156"
    INDEX 01 12:15:45
  TRACK 378 AUDIO
    TITLE "3:cjc087_6157"
    INDEX 01 12:17:30
  TRACK 379 AUDIO
    TITLE "0:"
    INDEX 01 12:19:17
  TRACK 380 AUDIO
    TITLE "4:cjc087_6158"
    INDEX 01 12:20:11
  TRACK 381 AUDIO
    TITLE "3:cjc087_6159"
    INDEX 01 12:22:35
  TRACK 382 AUDIO
    TITLE "0:"
    INDEX 01 12:24:52
  TRACK 383 AUDIO
    TITLE "4:cjc087_6160"
    INDEX 01 12:25:49
  TRACK 384 AUDIO
    TITLE "3:cjc087_6161"
    INDEX 01 12:27:54
  TRACK 385 AUDIO
    TITLE "0:"
    INDEX 01 12:30:41
  TRACK 386 AUDIO
    TITLE "4:cjc087_6162"
    INDEX 01 12:31:38
  TRACK 387 AUDIO
    TITLE "3:cjc087_6163"
    INDEX 01 12:33:39
  TRACK 388 AUDIO
    TITLE "0:"
    INDEX 01 12:36:04
  TRACK 389 AUDIO
    TITLE "4:cjc087_6164"
    INDEX 01 12:37:02
  TRACK 390 AUDIO
    TITLE "3:cjc087_6165"
    INDEX 01 12:39:04
  TRACK 391 AUDIO
    TITLE "0:"
    INDEX 01 12:41:43
  TRACK 392 AUDIO
    TITLE "4:cjc087_6166"
    INDEX 01 12:42:42
  TRACK 393 AUDIO
    TITLE "3:cjc087_6167"
    INDEX 01 12:44:57
  TRACK 394 AUDIO
    TITLE "0:"
    INDEX 01 12:47:02
  TRACK 395 AUDIO
    TITLE "4:cjc087_6168"
    INDEX 01 12:48:01
  TRACK 396 AUDIO
    TITLE "3:cjc087_6169"
    INDEX 01 12:50:38
  TRACK 397 AUDIO
    TITLE "0:"
    INDEX 01 12:52:74
  TRACK 398 AUDIO
    TITLE "5:cjc087_6170"
    INDEX 01 12:54:33
  TRACK 399 AUDIO
    TITLE "0:"
    INDEX 01 12:56:38
  TRACK 400 AUDIO
    TITLE "4:cjc087_6171"
    INDEX 01 12:57:36
  TRACK 401 AUDIO
    TITLE "3:cjc087_6172"
    INDEX 01 13:00:05
  TRACK 402 AUDIO
    TITLE "0:"
    INDEX 01 13:03:05
  TRACK 403 AUDIO
    TITLE "4:cjc087_6173"
    INDEX 01 13:04:04
  TRACK 404 AUDIO
    TITLE "3:cjc087_6174"
    INDEX 01 13:05:51
  TRACK 405 AUDIO
    TITLE "0:"
    INDEX 01 13:08:00
  TRACK 406 AUDIO
    TITLE "4:cjc087_6175"
    INDEX 01 13:09:02
  TRACK 407 AUDIO
    TITLE "3:cjc087_6176"
    INDEX 01 13:10:60
  TRACK 408 AUDIO
    TITLE "0:"
    INDEX 01 13:13:03
  TRACK 409 AUDIO
    TITLE "4:cjc087_6177"
    INDEX 01 13:14:01
  TRACK 410 AUDIO
    TITLE "3:cjc087_6178"
    INDEX 01 13:15:65
  TRACK 411 AUDIO
    TITLE "0:"
    INDEX 01 13:18:10
  TRACK 412 AUDIO
    TITLE "4:cjc087_6179"
    INDEX 01 13:19:08
  TRACK 413 AUDIO
    TITLE "3:cjc087_6180"
    INDEX 01 13:21:05
  TRACK 414 AUDIO
    TITLE "0:"
    INDEX 01 13:23:45
  TRACK 415 AUDIO
    TITLE "4:cjc087_6181"
    INDEX 01 13:24:42
  TRACK 416 AUDIO
    TITLE "3:cjc087_6182"
    INDEX 01 13:26:39
  TRACK 417 AUDIO
    TITLE "0:"
    INDEX 01 13:28:64
  TRACK 418 AUDIO
    TITLE "4:cjc087_6183"
    INDEX 01 13:30:00
  TRACK 419 AUDIO
    TITLE "3:cjc087_6184"
    INDEX 01 13:31:64
  TRACK 420 AUDIO
    TITLE "0:"
    INDEX 01 13:34:07
  TRACK 421 AUDIO
    TITLE "4:cjc087_6185"
    INDEX 01 13:35:03
  TRACK 422 AUDIO
    TITLE "3:cjc087_6186"
    INDEX 01 13:36:48
  TRACK 423 AUDIO
    TITLE "0:"
    INDEX 01 13:38:48
  TRACK 424 AUDIO
    TITLE "5:cjc087_6187"
    INDEX 01 13:40:08
  TRACK 425 AUDIO
    TITLE "0:"
    INDEX 01 13:42:13
  TRACK 426 AUDIO
    TITLE "4:cjc087_6188"
    INDEX 01 13:43:10
  TRACK 427 AUDIO
    TITLE "3:cjc087_6189"
    INDEX 01 13:44:53
  TRACK 428 AUDIO
    TITLE "0:"
    INDEX 01 13:46:52
  TRACK 429 AUDIO
    TITLE "4:cjc087_6190"
    INDEX 01 13:47:49
  TRACK 430 AUDIO
    TITLE "3:cjc087_6191"
    INDEX 01 13:49:54
  TRACK 431 AUDIO
    TITLE "0:"
    INDEX 01 13:52:07
  TRACK 432 AUDIO
    TITLE "4:cjc087_6192"
    INDEX 01 13:53:07
  TRACK 433 AUDIO
    TITLE "3:cjc087_6193"
    INDEX 01 13:55:31
  TRACK 434 AUDIO
    TITLE "0:"
    INDEX 01 13:57:44
  TRACK 435 AUDIO
    TITLE "4:cjc087_6194"
    INDEX 01 13:58:37
  TRACK 436 AUDIO
    TITLE "3:cjc087_6195"
    INDEX 01 14:01:00
  TRACK 437 AUDIO
    TITLE "0:"
    INDEX 01 14:03:05
  TRACK 438 AUDIO
    TITLE "4:cjc087_6196"
    INDEX 01 14:04:05
  TRACK 439 AUDIO
    TITLE "3:cjc087_6197"
    INDEX 01 14:06:13
  TRACK 440 AUDIO
    TITLE "0:"
    INDEX 01 14:08:38
  TRACK 441 AUDIO
    TITLE "4:cjc087_6198"
    INDEX 01 14:09:37
  TRACK 442 AUDIO
    TITLE "3:cjc087_6199"
    INDEX 01 14:11:44
  TRACK 443 AUDIO
    TITLE "0:"
    INDEX 01 14:14:34
  TRACK 444 AUDIO
    TITLE "4:cjc087_6200"
    INDEX 01 14:15:32
  TRACK 445 AUDIO
    TITLE "3:cjc087_6201"
    INDEX 01 14:17:72
  TRACK 446 AUDIO
    TITLE "0:"
    INDEX 01 14:20:21
  TRACK 447 AUDIO
    TITLE "4:cjc087_6202"
    INDEX 01 14:21:27
  TRACK 448 AUDIO
    TITLE "3:cjc087_6203"
    INDEX 01 14:23:65
  TRACK 449 AUDIO
    TITLE "0:"
    INDEX 01 14:26:43
  TRACK 450 AUDIO
    TITLE "4:cjc087_6204"
    INDEX 01 14:27:49
  TRACK 451 AUDIO
    TITLE "3:cjc087_6205"
    INDEX 01 14:29:38
  TRACK 452 AUDIO
    TITLE "0:"
    INDEX 01 14:31:41
  TRACK 453 AUDIO
    TITLE "5:cjc087_6206"
    INDEX 01 14:33:02
  TRACK 454 AUDIO
    TITLE "0:"
    INDEX 01 14:35:09
  TRACK 455 AUDIO
    TITLE "4:cjc087_6207"
    INDEX 01 14:36:05
  TRACK 456 AUDIO
    TITLE "3:cjc087_6208"
    INDEX 01 14:37:45
  TRACK 457 AUDIO
    TITLE "0:"
    INDEX 01 14:39:56
  TRACK 458 AUDIO
    TITLE "4:cjc087_6209"
    INDEX 01 14:40:55
  TRACK 459 AUDIO
    TITLE "3:cjc087_6210"
    INDEX 01 14:42:62
  TRACK 460 AUDIO
    TITLE "0:"
    INDEX 01 14:45:25
  TRACK 461 AUDIO
    TITLE "4:cjc087_6211"
    INDEX 01 14:46:34
  TRACK 462 AUDIO
    TITLE "3:cjc087_6212"
    INDEX 01 14:48:72
  TRACK 463 AUDIO
    TITLE "0:"
    INDEX 01 14:52:10
  TRACK 464 AUDIO
    TITLE "4:cjc087_6213"
    INDEX 01 14:53:09
  TRACK 465 AUDIO
    TITLE "3:cjc087_6214"
    INDEX 01 14:55:14
  TRACK 466 AUDIO
    TITLE "0:"
    INDEX 01 14:57:38
  TRACK 467 AUDIO
    TITLE "4:cjc087_6215"
    INDEX 01 14:58:38
  TRACK 468 AUDIO
    TITLE "3:cjc087_6216"
    INDEX 01 15:01:44
  TRACK 469 AUDIO
    TITLE "0:"
    INDEX 01 15:04:73
  TRACK 470 AUDIO
    TITLE "4:cjc087_6217"
    INDEX 01 15:05:73
  TRACK 471 AUDIO
    TITLE "3:cjc087_6218"
    INDEX 01 15:08:71
  TRACK 472 AUDIO
    TITLE "0:"
    INDEX 01 15:12:14
  TRACK 473 AUDIO
    TITLE "4:cjc087_6219"
    INDEX 01 15:13:14
  TRACK 474 AUDIO
    TITLE "3:cjc087_6220"
    INDEX 01 15:15:34
  TRACK 475 AUDIO
    TITLE "0:"
    INDEX 01 15:18:27
  TRACK 476 AUDIO
    TITLE "2:cjc087_6221"
    INDEX 01 15:19:61
  TRACK 477 AUDIO
    TITLE "0:"
    INDEX 01 15:30:63
  TRACK 478 AUDIO
    TITLE "5:cjc087_6222"
    INDEX 01 15:32:29
  TRACK 479 AUDIO
    TITLE "0:"
    INDEX 01 15:34:37
  TRACK 480 AUDIO
    TITLE "4:cjc087_6223"
    INDEX 01 15:35:35
  TRACK 481 AUDIO
    TITLE "3:cjc087_6224"
    INDEX 01 15:37:14
  TRACK 482 AUDIO
    TITLE "0:"
    INDEX 01 15:39:01
  TRACK 483 AUDIO
    TITLE "4:cjc087_6225"
    INDEX 01 15:40:01
  TRACK 484 AUDIO
    TITLE "3:cjc087_6226"
    INDEX 01 15:43:36
  TRACK 485 AUDIO
    TITLE "0:"
    INDEX 01 15:45:65
  TRACK 486 AUDIO
    TITLE "4:cjc087_6227"
    INDEX 01 15:46:62
  TRACK 487 AUDIO
    TITLE "3:cjc087_6228"
    INDEX 01 15:48:53
  TRACK 488 AUDIO
    TITLE "0:"
    INDEX 01 15:50:60
  TRACK 489 AUDIO
    TITLE "4:cjc087_6229"
    INDEX 01 15:51:57
  TRACK 490 AUDIO
    TITLE "3:cjc087_6230"
    INDEX 01 15:53:46
  TRACK 491 AUDIO
    TITLE "0:"
    INDEX 01 15:55:20
  TRACK 492 AUDIO
    TITLE "4:cjc087_6231"
    INDEX 01 15:56:19
  TRACK 493 AUDIO
    TITLE "3:cjc087_6232"
    INDEX 01 15:58:16
  TRACK 494 AUDIO
    TITLE "0:"
    INDEX 01 16:00:17
  TRACK 495 AUDIO
    TITLE "5:cjc087_6233"
    INDEX 01 16:01:56
  TRACK 496 AUDIO
    TITLE "0:"
    INDEX 01 16:03:72
  TRACK 497 AUDIO
    TITLE "4:cjc087_6234"
    INDEX 01 16:04:70
  TRACK 498 AUDIO
    TITLE "3:cjc087_6235"
    INDEX 01 16:06:61
  TRACK 499 AUDIO
    TITLE "0:"
    INDEX 01 16:08:66
  TRACK 500 AUDIO
    TITLE "4:cjc087_6236"
    INDEX 01 16:09:65
  TRACK 501 AUDIO
    TITLE "3:cjc087_6237"
    INDEX 01 16:12:36
  TRACK 502 AUDIO
    TITLE "0:"
    INDEX 01 16:15:09
  TRACK 503 AUDIO
    TITLE "4:cjc087_6238"
    INDEX 01 16:16:04
  TRACK 504 AUDIO
    TITLE "3:cjc087_6239"
    INDEX 01 16:19:30
  TRACK 505 AUDIO
    TITLE "0:"
    INDEX 01 16:21:66
  TRACK 506 AUDIO
    TITLE "4:cjc087_6240"
    INDEX 01 16:22:66
  TRACK 507 AUDIO
    TITLE "3:cjc087_6241"
    INDEX 01 16:24:53
  TRACK 508 AUDIO
    TITLE "0:"
    INDEX 01 16:26:56
  TRACK 509 AUDIO
    TITLE "4:cjc087_6242"
    INDEX 01 16:27:53
  TRACK 510 AUDIO
    TITLE "3:cjc087_6243"
    INDEX 01 16:30:26
  TRACK 511 AUDIO
    TITLE "0:"
    INDEX 01 16:33:28
